<svg width="86" height="84" viewBox="0 0 86 84" fill="none" xmlns="http://www.w3.org/2000/svg">
<path d="M6.71875 64.3125H40.3125V76.125H26.875V81.375H59.125V76.125H45.6875V64.3125H79.2812C80.35 64.3113 81.3747 63.8961 82.1304 63.1579C82.8861 62.4197 83.3113 61.4189 83.3125 60.375V11.8125C83.3113 10.7686 82.8861 9.76777 82.1304 9.02961C81.3747 8.29145 80.35 7.87622 79.2812 7.875H6.71875C5.64998 7.87622 4.62534 8.29145 3.8696 9.02961C3.11386 9.76777 2.68874 10.7686 2.6875 11.8125V60.375C2.68874 61.4189 3.11386 62.4197 3.8696 63.1579C4.62534 63.8961 5.64998 64.3113 6.71875 64.3125V64.3125ZM8.0625 13.125H77.9375V59.0625H8.0625V13.125Z" fill="white"/>
<path d="M20 41V26.84H20.72V41H20ZM21.44 41V26.84H23.6V41H21.44ZM24.32 41V26.84H25.04V41H24.32ZM25.76 41V26.84H26.48V41H25.76ZM28.64 41V26.84H30.8V41H28.64ZM24.128 43.088H24.848V43.16C24.816 43.192 24.792 43.232 24.776 43.28C24.776 43.312 24.776 43.384 24.776 43.496V48.128H27.44V48.656H24.128V43.088ZM31.5312 41V26.84H32.2513V41H31.5312ZM32.9713 41V26.84H35.1313V41H32.9713ZM35.8513 41V26.84H36.5713V41H35.8513ZM38.7313 41V26.84H40.8913V41H38.7313ZM41.6113 41V26.84H42.3313V41H41.6113ZM35.7793 48.128H36.8833V43.616H35.8513V43.088H38.6113V43.616H37.5073V48.128H38.6593V48.656H35.7793V48.128ZM43.0625 41V26.84H43.7825V41H43.0625ZM44.5025 41V26.84H46.6625V41H44.5025ZM47.3825 41V26.84H49.5425V41H47.3825ZM51.7025 41V26.84H52.4225V41H51.7025ZM53.1425 41V26.84H53.8625V41H53.1425ZM47.2865 43.088H50.4785V43.64H47.9105V45.392H49.9985V45.92H47.9105V48.656H47.2865V43.088ZM54.5938 41V26.84H56.7538V41H54.5938ZM57.4738 41V26.84H58.1938V41H57.4738ZM58.9138 41V26.84H61.0738V41H58.9138ZM63.2338 41V26.84H63.9538V41H63.2338ZM64.6738 41V26.84H65.3938V41H64.6738ZM58.6498 43.088H62.0578V43.64H59.2258V45.464H61.5778V46.04H59.2258V48.104H62.0338V48.656H58.6498V43.088Z" fill="white"/>
</svg>
